<?xml version="1.0" encoding="utf-8"?>
<!-- Generator: Adobe Illustrator 27.0.0, SVG Export Plug-In . SVG Version: 6.00 Build 0)  -->
<svg version="1.1" id="Layer_1" xmlns="http://www.w3.org/2000/svg" xmlns:xlink="http://www.w3.org/1999/xlink" x="0px" y="0px"
	 viewBox="0 0 512 512" style="enable-background:new 0 0 512 512;" xml:space="preserve">
<style type="text/css">
	.st0{fill:#4B8BC9;}
	.st1{fill:#FFFFFF;}
</style>
<g>
	<path class="st0" d="M492.56,186.76l-17.6-92.96l-168.49,80.33L260.88,33.89L203.9,209.33H19.44l149.23,108.42l-8.78,27.06
		l-84.62,40.34l17.63,92.96l28.01-13.34l86.97-41.49l38.09-18.18l25.9-12.36l91.43-43.6l15.52-7.39l34.89-16.65l-26.31-32.27
		l-32.78-40.27l90.61-43.23L492.56,186.76z M376.35,300.9l15.76,19.33l-33.05,15.76L126.74,446.82l-23.69,11.3l-12.36-65.15
		l63.38-30.23l196.34-93.64L376.35,300.9z M217.42,302.84l-41.66-51.16l135-64.37l154.06-73.49l12.36,65.12l-63.72,30.4
		L217.42,302.84z"/>
	<polygon class="st1" points="392.09,320.24 359.06,336 126.73,446.81 103.05,458.11 90.69,392.96 154.06,362.74 350.41,269.09 
		376.33,300.9 	"/>
	<polygon class="st1" points="477.16,178.94 413.43,209.34 217.43,302.83 175.75,251.68 310.75,187.3 464.82,113.81 	"/>
</g>
</svg>
